<?xml version="1.0" standalone="no"?>
<!DOCTYPE svg PUBLIC "-//W3C//DTD SVG 20010904//EN"
 "http://www.w3.org/TR/2001/REC-SVG-20010904/DTD/svg10.dtd">
<svg version="1.0" xmlns="http://www.w3.org/2000/svg"
 width="600.000000pt" height="600.000000pt" viewBox="0 0 600.000000 600.000000"
 preserveAspectRatio="xMidYMid meet">
<metadata>
Created by potrace 1.10, written by Peter Selinger 2001-2011
</metadata>
<g transform="translate(0.000000,600.000000) scale(0.100000,-0.100000)"
fill="#32a6d7" stroke="none">
<path d="M2966 5755 c-3 -8 -16 -15 -30 -15 -13 0 -26 -7 -30 -15 -3 -8 -16
-15 -30 -15 -13 0 -27 -7 -30 -16 -3 -8 -25 -24 -49 -34 -23 -10 -53 -30 -67
-44 -13 -15 -31 -26 -41 -26 -22 0 -89 -39 -89 -51 0 -5 -8 -9 -19 -9 -10 0
-24 -7 -31 -15 -7 -8 -19 -15 -27 -15 -8 0 -32 -13 -53 -30 -21 -16 -45 -30
-54 -30 -9 0 -19 -7 -22 -15 -4 -8 -17 -15 -30 -15 -13 0 -24 -4 -24 -9 0 -5
-34 -26 -75 -47 -42 -21 -81 -44 -87 -51 -6 -7 -16 -13 -23 -13 -7 0 -18 -7
-25 -15 -7 -8 -21 -15 -31 -15 -10 0 -33 -13 -51 -30 -18 -16 -40 -30 -49 -30
-9 0 -19 -7 -23 -15 -3 -8 -12 -15 -19 -15 -8 0 -20 -7 -27 -15 -7 -8 -21 -15
-31 -15 -11 0 -19 -4 -19 -9 0 -5 -13 -14 -30 -20 -16 -5 -30 -15 -30 -20 0
-6 -11 -11 -25 -11 -14 0 -28 -7 -31 -15 -4 -8 -16 -15 -29 -15 -13 0 -25 -7
-29 -15 -3 -8 -12 -15 -21 -15 -8 0 -34 -13 -57 -30 -22 -16 -45 -30 -51 -30
-5 0 -25 -13 -44 -30 -18 -16 -44 -30 -57 -30 -12 0 -33 -11 -46 -26 -14 -14
-43 -33 -65 -43 -22 -10 -46 -25 -54 -34 -7 -10 -21 -17 -31 -17 -10 0 -23 -7
-30 -15 -7 -8 -20 -15 -30 -15 -10 0 -20 -7 -24 -15 -3 -8 -17 -15 -31 -15
-14 0 -25 -4 -25 -9 0 -5 -21 -20 -47 -33 -27 -13 -54 -29 -61 -35 -7 -7 -19
-13 -27 -13 -7 0 -15 -7 -19 -15 -3 -8 -15 -15 -26 -15 -12 0 -35 -13 -53 -30
-18 -16 -39 -30 -48 -30 -9 0 -22 -7 -29 -15 -7 -8 -18 -15 -26 -15 -7 0 -25
-11 -40 -25 -15 -14 -39 -28 -53 -32 -31 -7 -73 -33 -84 -50 -4 -7 -19 -13
-31 -13 -13 0 -26 -7 -30 -15 -3 -8 -13 -15 -22 -15 -9 0 -33 -13 -54 -30 -21
-16 -45 -30 -53 -30 -8 0 -20 -7 -27 -15 -7 -8 -19 -15 -26 -15 -8 0 -23 -9
-34 -20 -19 -19 -20 -33 -20 -440 0 -404 1 -420 19 -420 10 0 24 -7 31 -15 7
-8 21 -15 31 -15 10 0 20 -4 23 -9 7 -11 125 -81 136 -81 5 0 21 -11 36 -25
15 -14 44 -30 64 -35 20 -5 48 -20 62 -32 32 -29 82 -58 100 -58 8 0 27 -14
43 -30 16 -17 39 -30 51 -30 12 0 24 -7 28 -15 3 -8 12 -15 20 -15 8 0 35 -14
59 -30 25 -17 49 -30 55 -30 5 0 15 -7 22 -15 7 -8 21 -15 32 -15 10 0 21 -7
24 -15 4 -8 14 -15 24 -15 10 0 23 -7 30 -15 7 -8 20 -15 29 -15 9 -1 32 -14
51 -30 19 -17 41 -30 50 -30 9 0 29 -13 45 -30 16 -17 37 -30 48 -30 10 0 36
-13 57 -30 21 -16 44 -30 52 -30 8 0 19 -5 25 -11 12 -12 46 -33 80 -48 11 -5
24 -15 28 -20 3 -6 15 -11 26 -11 11 0 22 -7 25 -15 4 -8 17 -15 30 -15 12 0
27 -6 31 -13 11 -18 53 -43 86 -51 15 -3 27 -11 27 -16 0 -6 7 -10 15 -10 7 0
18 -6 22 -12 4 -7 25 -22 47 -33 21 -11 41 -25 43 -32 3 -7 16 -13 29 -13 14
0 27 -7 30 -15 4 -8 14 -15 24 -15 10 0 22 -6 28 -13 6 -7 45 -30 87 -51 41
-21 75 -42 75 -47 0 -5 11 -9 24 -9 13 0 26 -7 30 -15 3 -8 14 -15 23 -15 10
0 33 -13 51 -30 18 -17 39 -30 46 -30 7 0 21 -7 32 -15 10 -8 24 -15 31 -15 6
0 27 -13 45 -30 18 -17 42 -30 54 -30 12 0 37 -13 55 -30 19 -16 39 -30 45
-30 6 0 30 -13 52 -30 23 -16 49 -30 57 -30 9 0 18 -7 21 -15 4 -8 17 -15 30
-15 14 0 27 -7 30 -15 4 -8 16 -15 28 -15 12 0 27 -5 33 -11 8 -8 13 -8 17 0
4 6 16 11 26 11 10 0 34 14 52 30 18 17 40 30 49 30 9 0 28 11 43 25 15 14 51
36 81 51 30 14 55 30 55 35 0 5 11 9 24 9 13 0 26 7 30 15 3 8 17 15 31 15 14
0 25 5 25 10 0 6 10 14 23 19 12 5 39 21 60 35 21 14 44 26 51 26 7 0 25 14
41 30 16 17 37 30 48 30 21 0 77 30 77 41 0 9 77 49 93 49 7 0 27 14 45 30 18
16 41 30 51 30 10 0 24 7 31 15 7 8 21 15 31 15 11 0 19 4 19 9 0 5 21 20 48
33 26 13 53 29 60 36 7 6 20 12 28 12 8 0 17 7 20 15 4 8 16 15 29 15 13 0 25
7 29 15 3 8 14 15 25 15 11 0 35 14 53 30 18 17 41 30 51 30 10 0 31 14 45 30
15 17 36 30 49 30 13 0 23 4 23 10 0 5 11 12 24 16 14 3 27 12 30 20 3 8 16
14 30 14 13 0 26 7 30 15 3 8 12 15 21 15 8 0 34 13 57 30 22 17 47 30 53 30
7 0 18 7 25 15 7 8 21 15 32 15 10 0 21 7 24 15 4 8 12 15 19 15 7 0 18 7 25
15 7 8 22 15 34 15 12 0 35 12 52 28 29 26 95 62 114 62 5 0 24 14 42 30 18
17 40 30 49 30 9 0 19 7 23 15 3 8 14 15 24 15 10 0 23 5 29 11 12 12 46 33
80 48 11 5 24 15 28 20 3 6 14 11 25 11 10 0 20 7 24 15 3 8 16 15 30 15 13 0
26 7 30 15 3 8 16 15 30 15 13 0 26 6 29 13 2 7 22 21 42 32 21 11 52 32 69
48 17 15 41 27 53 27 l23 0 0 424 0 424 -25 16 c-13 9 -30 16 -37 16 -8 0 -28
14 -46 30 -18 17 -40 30 -48 30 -9 0 -29 14 -46 30 -16 17 -38 30 -49 30 -11
0 -22 7 -25 15 -4 8 -17 15 -30 15 -14 0 -27 7 -30 15 -4 8 -14 15 -23 15 -9
0 -22 5 -28 11 -13 13 -47 33 -80 48 -13 6 -23 15 -23 21 0 5 -11 10 -25 10
-14 0 -28 7 -31 15 -4 8 -13 15 -21 15 -8 0 -32 14 -53 30 -21 17 -43 30 -49
30 -13 0 -82 36 -90 47 -12 16 -61 43 -79 43 -10 0 -31 14 -47 30 -16 17 -36
30 -45 30 -9 0 -21 5 -27 11 -12 12 -46 33 -80 48 -11 5 -24 15 -28 20 -3 6
-15 11 -26 11 -11 0 -22 7 -25 15 -4 8 -17 15 -30 15 -14 0 -27 7 -30 15 -4 8
-14 15 -24 15 -10 0 -23 7 -30 15 -7 8 -18 15 -26 15 -7 0 -28 14 -46 30 -18
17 -40 30 -50 30 -9 0 -31 14 -48 30 -17 17 -37 30 -45 30 -15 0 -77 31 -86
43 -7 9 -44 32 -69 42 -8 4 -22 11 -30 16 -8 5 -25 13 -37 19 -13 5 -23 14
-23 20 0 5 -8 10 -19 10 -10 0 -24 7 -31 15 -7 8 -19 15 -27 15 -8 0 -32 14
-53 30 -21 17 -43 30 -49 30 -13 0 -82 36 -90 47 -12 16 -61 43 -79 43 -10 0
-31 14 -47 30 -16 17 -35 30 -43 30 -8 0 -31 14 -52 30 -21 17 -45 30 -54 30
-9 0 -19 7 -22 15 -4 8 -17 15 -30 15 -14 0 -27 7 -30 15 -4 8 -14 15 -24 15
-10 0 -23 7 -30 15 -7 8 -19 15 -26 15 -8 0 -43 20 -80 45 -36 25 -72 45 -80
45 -8 0 -28 14 -44 30 -32 33 -84 41 -94 15z"/>
<path d="M330 2785 c0 -182 1 -196 20 -215 11 -11 26 -20 34 -20 7 0 19 -7 26
-15 7 -8 19 -15 26 -15 8 0 33 -13 56 -30 22 -16 47 -30 53 -30 7 0 18 -7 25
-15 7 -8 21 -15 32 -15 10 0 21 -7 24 -15 4 -8 12 -15 19 -15 7 0 18 -7 25
-15 7 -8 22 -15 34 -15 11 0 34 -13 49 -30 16 -16 36 -30 46 -30 9 0 31 -13
49 -30 18 -16 42 -30 53 -30 11 0 22 -7 25 -15 4 -8 17 -15 30 -15 14 0 27 -7
30 -15 4 -8 12 -15 19 -15 8 0 20 -6 27 -12 7 -7 34 -23 61 -36 26 -13 47 -28
47 -33 0 -5 11 -9 25 -9 14 0 28 -7 31 -15 4 -8 13 -15 21 -15 8 0 32 -13 53
-30 21 -16 43 -30 49 -30 18 0 75 -33 106 -63 16 -15 40 -27 52 -27 12 0 38
-13 56 -30 19 -16 41 -30 49 -30 8 0 19 -5 25 -11 13 -13 47 -33 81 -48 12 -6
22 -15 22 -21 0 -5 11 -10 25 -10 14 0 28 -7 31 -15 4 -8 17 -15 30 -15 14 0
27 -6 30 -14 3 -8 16 -17 30 -20 13 -4 24 -11 24 -16 0 -6 8 -10 18 -10 10 0
34 -13 52 -30 18 -16 41 -30 50 -30 8 0 30 -13 48 -30 18 -16 41 -30 51 -30
10 0 24 -7 31 -15 7 -8 16 -15 21 -15 4 0 28 -13 52 -30 25 -16 49 -30 55 -30
5 0 15 -7 22 -15 7 -8 21 -15 32 -15 10 0 21 -7 24 -15 4 -8 14 -15 24 -15 10
0 23 -7 30 -15 7 -8 19 -15 27 -15 8 0 32 -13 53 -30 21 -16 42 -30 47 -30 12
0 85 -38 92 -48 12 -15 61 -42 79 -42 10 0 31 -13 47 -30 16 -16 35 -30 43
-30 8 0 31 -14 52 -30 21 -17 45 -30 54 -30 9 0 19 -7 22 -15 4 -8 17 -15 30
-15 14 0 27 -7 30 -15 10 -25 57 -17 92 15 18 17 39 30 45 30 7 0 21 7 31 15
11 8 27 15 37 15 9 0 19 6 22 14 3 7 26 23 51 36 25 12 46 26 46 31 0 5 11 9
24 9 13 0 26 7 30 15 3 8 14 15 24 15 11 0 25 7 32 15 7 8 19 15 27 15 8 0 32
14 53 30 21 16 45 30 53 30 8 0 20 7 27 15 7 8 20 15 30 15 10 0 20 7 24 15 3
8 10 15 16 15 6 0 18 7 26 15 9 8 26 15 39 15 14 0 29 9 35 20 6 11 35 31 66
46 30 14 58 32 61 40 3 8 15 14 28 14 12 0 28 7 35 15 7 8 20 15 30 15 10 0
20 7 24 15 3 8 14 15 24 15 11 0 25 7 32 15 7 8 19 15 26 15 8 0 14 5 14 10 0
6 6 10 13 10 6 0 34 16 61 35 27 19 57 35 67 35 10 0 33 14 51 30 18 17 38 30
45 30 7 0 28 13 46 30 19 16 41 30 50 30 8 0 20 7 27 15 7 8 20 15 30 15 10 0
20 7 24 15 3 8 16 15 30 15 13 0 26 7 30 15 3 8 14 15 24 15 10 0 23 5 29 11
12 12 46 33 80 48 11 5 24 15 28 20 3 6 14 11 24 11 9 0 30 14 46 30 16 17 37
30 47 30 18 0 67 27 79 43 8 12 77 47 92 47 7 0 27 14 45 30 18 17 42 30 52
30 10 0 22 5 25 11 4 5 17 15 28 20 12 5 36 18 52 29 17 11 40 24 52 29 11 5
24 15 28 20 3 6 14 11 25 11 10 0 20 7 24 15 3 8 14 15 24 15 11 0 25 7 32 15
7 8 21 15 30 15 10 0 32 14 48 30 17 17 39 30 49 30 11 0 32 13 48 30 16 16
36 30 44 30 9 1 26 9 39 19 21 19 22 24 22 215 0 108 -4 196 -9 196 -5 0 -14
-7 -21 -15 -7 -8 -20 -15 -30 -15 -10 0 -23 -7 -30 -15 -7 -8 -21 -15 -32 -15
-10 0 -21 -7 -24 -15 -4 -8 -17 -15 -30 -15 -13 0 -24 -4 -24 -10 0 -5 -15
-16 -34 -24 -19 -8 -43 -23 -54 -33 -24 -23 -79 -53 -97 -53 -8 0 -29 -14 -47
-30 -18 -17 -38 -30 -45 -30 -7 0 -39 -17 -71 -39 -31 -21 -67 -42 -79 -45
-11 -4 -27 -13 -33 -21 -7 -8 -20 -15 -30 -15 -10 0 -20 -7 -24 -15 -3 -8 -16
-15 -30 -15 -13 0 -26 -7 -30 -15 -3 -8 -12 -15 -21 -15 -8 0 -34 -13 -57 -30
-22 -16 -45 -30 -51 -30 -5 0 -25 -13 -44 -30 -18 -17 -40 -30 -49 -30 -15 0
-64 -28 -75 -42 -7 -10 -80 -48 -92 -48 -5 0 -26 -13 -47 -30 -21 -16 -45 -30
-53 -30 -8 0 -17 -7 -21 -15 -3 -8 -17 -15 -31 -15 -14 0 -25 -4 -25 -9 0 -5
-34 -27 -76 -48 -42 -21 -79 -43 -81 -50 -3 -7 -13 -13 -23 -13 -10 0 -23 -7
-30 -15 -7 -8 -21 -15 -31 -15 -10 0 -33 -13 -51 -30 -18 -16 -40 -30 -50 -30
-10 0 -32 -13 -50 -30 -17 -16 -37 -30 -45 -30 -17 0 -65 -30 -76 -47 -4 -7
-19 -13 -31 -13 -13 0 -26 -7 -30 -15 -3 -8 -14 -15 -24 -15 -10 0 -23 -5 -29
-11 -12 -12 -46 -33 -80 -48 -11 -5 -24 -15 -28 -20 -3 -6 -13 -11 -22 -11 -8
0 -32 -13 -53 -30 -21 -16 -46 -30 -55 -30 -9 0 -34 -13 -55 -30 -21 -16 -42
-30 -47 -30 -5 0 -24 -13 -43 -30 -19 -16 -42 -29 -51 -30 -9 0 -22 -7 -29
-15 -7 -8 -20 -15 -30 -15 -10 0 -20 -7 -24 -15 -3 -8 -14 -15 -24 -15 -11 0
-25 -7 -32 -15 -7 -8 -17 -15 -22 -15 -6 0 -30 -14 -55 -30 -44 -30 -45 -30
-75 -13 -17 10 -42 28 -56 41 -14 12 -42 27 -63 32 -20 6 -48 21 -61 35 -12
14 -30 25 -39 25 -9 0 -22 6 -28 14 -7 8 -23 17 -36 20 -14 4 -25 11 -25 16 0
6 -6 10 -14 10 -7 0 -19 7 -26 15 -7 8 -21 15 -32 15 -10 0 -21 7 -24 15 -4 8
-17 15 -30 15 -12 0 -27 6 -31 12 -9 15 -69 48 -86 48 -7 0 -25 14 -40 30 -16
17 -38 30 -49 30 -11 0 -33 14 -50 30 -16 17 -38 30 -48 30 -9 0 -23 7 -30 15
-7 8 -21 15 -31 15 -11 0 -19 4 -19 9 0 5 -17 18 -37 28 -93 48 -123 66 -123
74 0 5 -8 9 -19 9 -10 0 -24 7 -31 15 -7 8 -21 15 -31 15 -10 0 -33 14 -51 30
-18 17 -39 30 -46 30 -16 0 -72 30 -87 46 -19 20 -64 44 -83 44 -10 0 -31 14
-47 30 -16 17 -34 30 -41 30 -7 0 -30 12 -51 26 -21 14 -48 30 -60 35 -13 5
-23 13 -23 19 0 5 -11 10 -25 10 -14 0 -28 7 -31 15 -4 8 -16 15 -29 15 -13 0
-25 7 -29 15 -3 8 -14 15 -24 15 -11 0 -25 7 -32 15 -7 8 -18 15 -25 15 -6 0
-23 10 -36 21 -13 12 -37 27 -54 35 -16 7 -42 24 -57 38 -15 14 -35 26 -44 26
-9 0 -47 20 -84 45 -37 25 -72 45 -78 45 -5 0 -15 7 -22 15 -7 8 -21 15 -32
15 -10 0 -21 7 -24 15 -4 8 -16 15 -29 15 -13 0 -25 7 -29 15 -3 8 -12 15 -21
15 -8 0 -34 14 -57 30 -22 17 -46 30 -53 30 -6 0 -24 14 -40 30 -16 17 -39 30
-51 30 -12 0 -29 7 -38 15 -8 8 -19 15 -25 15 -5 0 -14 6 -18 13 -10 15 -70
47 -89 47 -12 0 -14 -33 -14 -195z"/>
<path d="M330 1971 l0 -197 33 -32 c18 -18 40 -32 49 -32 8 0 21 -6 27 -14 7
-8 23 -17 36 -20 14 -4 25 -11 25 -16 0 -6 6 -10 14 -10 7 0 19 -7 26 -15 7
-8 21 -15 32 -15 10 0 21 -7 24 -15 4 -8 16 -15 29 -15 13 0 25 -7 29 -15 3
-8 14 -15 24 -15 11 0 25 -7 32 -15 7 -8 20 -15 30 -15 9 0 25 -10 36 -21 10
-12 38 -30 61 -40 23 -10 48 -27 55 -38 7 -12 22 -21 33 -21 12 0 26 -5 32
-11 13 -13 47 -33 83 -49 13 -6 27 -14 30 -18 3 -4 26 -17 53 -30 26 -13 47
-28 47 -33 0 -5 8 -9 19 -9 10 0 24 -7 31 -15 7 -8 23 -15 35 -15 13 0 25 -6
28 -14 3 -7 39 -30 81 -50 42 -21 76 -41 76 -45 0 -4 20 -18 45 -30 25 -12 45
-27 45 -32 0 -5 8 -9 19 -9 10 0 24 -7 31 -15 7 -8 19 -15 26 -15 8 0 33 -13
56 -30 22 -16 47 -30 53 -30 7 0 18 -7 25 -15 7 -8 21 -15 32 -15 10 0 21 -7
24 -15 4 -8 16 -15 29 -15 13 0 25 -7 29 -15 3 -8 14 -15 24 -15 11 0 25 -7
32 -15 7 -8 18 -15 25 -15 7 0 28 -13 46 -30 19 -16 42 -30 52 -30 10 0 31
-14 47 -30 16 -17 37 -30 46 -30 9 0 47 -20 84 -45 37 -25 73 -45 79 -45 6 0
14 -7 17 -15 4 -8 17 -15 30 -15 14 0 27 -7 30 -15 4 -8 16 -15 29 -15 13 0
25 -7 29 -15 3 -8 14 -15 24 -15 11 0 25 -7 32 -15 7 -9 32 -25 54 -35 23 -10
54 -30 70 -44 16 -15 39 -26 51 -26 12 0 35 -13 51 -30 16 -16 36 -30 45 -30
9 0 22 -7 29 -15 7 -8 19 -15 27 -15 8 0 32 -14 53 -30 21 -17 45 -30 53 -30
8 0 20 -7 27 -15 17 -20 99 -20 106 0 4 8 14 15 24 15 10 0 23 7 30 15 7 8 21
15 31 15 10 0 33 14 51 30 18 17 40 30 49 30 9 0 22 7 29 15 7 8 20 15 30 15
10 0 20 7 24 15 3 8 16 15 30 15 13 0 26 7 30 15 3 8 14 15 24 15 11 0 25 7
32 15 7 8 16 15 21 15 5 0 28 13 51 30 22 16 47 30 54 30 7 0 28 13 46 30 18
16 42 30 54 30 11 0 29 10 40 21 10 12 42 32 70 45 28 13 57 30 64 39 7 8 21
15 32 15 10 0 21 7 24 15 4 8 16 15 29 15 13 0 25 7 29 15 3 8 12 15 21 15 8
0 34 14 57 30 22 16 46 30 52 30 6 0 26 14 45 30 18 17 43 30 55 30 12 0 36
14 54 30 18 17 39 30 45 30 7 0 21 7 31 15 11 8 25 15 32 15 7 0 28 14 46 30
18 17 38 30 44 30 18 0 78 33 87 48 4 6 16 12 26 12 10 0 24 7 31 15 7 8 17
15 22 15 6 0 30 14 55 30 24 17 51 30 59 30 8 0 17 7 20 15 4 8 14 15 25 15
10 0 30 12 46 26 15 14 40 28 55 31 14 3 38 18 52 34 15 16 33 29 41 29 19 0
67 29 78 47 4 7 19 13 33 13 13 0 27 7 30 15 4 8 14 15 24 15 10 0 23 7 30 15
7 8 17 15 22 15 6 0 30 14 55 30 24 17 48 30 54 30 5 0 28 14 51 30 22 16 49
30 59 30 10 0 33 13 51 30 18 16 37 30 43 30 6 0 26 13 45 30 19 16 42 29 51
30 9 0 22 7 29 15 7 8 20 15 30 15 10 0 21 7 24 16 3 9 6 101 6 205 0 205 -1
209 -53 169 -14 -11 -32 -20 -41 -20 -9 0 -19 -7 -22 -15 -4 -8 -16 -15 -29
-15 -13 0 -25 -7 -29 -15 -3 -8 -14 -15 -24 -15 -11 0 -25 -7 -32 -15 -7 -8
-18 -15 -25 -15 -6 0 -31 -13 -53 -30 -23 -16 -49 -30 -57 -30 -8 0 -15 -4
-15 -10 0 -5 -12 -13 -26 -16 -14 -4 -40 -19 -57 -35 -17 -16 -39 -29 -49 -29
-10 0 -18 -4 -18 -9 0 -5 -34 -27 -76 -48 -42 -21 -79 -43 -81 -50 -3 -7 -15
-13 -28 -13 -13 0 -25 -7 -29 -15 -3 -8 -17 -15 -31 -15 -14 0 -25 -4 -25 -9
0 -5 -21 -20 -47 -32 -27 -13 -54 -29 -61 -36 -7 -7 -18 -13 -24 -13 -5 0 -27
-14 -48 -30 -21 -17 -47 -30 -57 -30 -11 0 -32 -13 -48 -30 -16 -16 -36 -30
-45 -30 -9 0 -31 -13 -50 -30 -19 -16 -42 -29 -51 -30 -9 0 -22 -7 -29 -15 -7
-8 -20 -15 -30 -15 -10 0 -20 -7 -24 -15 -3 -8 -16 -15 -30 -15 -13 0 -26 -7
-30 -15 -3 -8 -14 -15 -24 -15 -11 0 -25 -7 -32 -15 -7 -8 -18 -15 -25 -15 -8
0 -15 -4 -17 -8 -5 -12 -74 -52 -90 -52 -8 0 -27 -13 -43 -30 -16 -16 -34 -30
-40 -30 -18 0 -95 -40 -95 -49 0 -4 -17 -16 -37 -26 -81 -39 -98 -49 -106 -62
-4 -7 -18 -13 -31 -13 -13 0 -29 -7 -36 -15 -7 -8 -17 -15 -22 -15 -6 0 -27
-14 -48 -30 -21 -16 -45 -30 -53 -30 -8 0 -20 -7 -27 -15 -7 -8 -21 -15 -32
-15 -10 0 -21 -7 -24 -15 -4 -8 -14 -15 -24 -15 -10 0 -23 -7 -30 -15 -7 -8
-20 -15 -29 -15 -10 0 -30 -14 -46 -30 -16 -16 -37 -30 -47 -30 -9 0 -33 -13
-51 -30 -19 -16 -41 -30 -50 -30 -8 0 -20 -7 -27 -15 -7 -8 -20 -15 -30 -15
-10 0 -20 -7 -24 -15 -3 -8 -14 -15 -24 -15 -11 0 -25 -7 -32 -15 -7 -8 -18
-15 -25 -15 -7 0 -18 -7 -25 -15 -22 -26 -79 -19 -110 15 -15 17 -33 30 -40
30 -17 0 -73 32 -83 48 -4 6 -17 12 -27 12 -10 0 -22 5 -25 10 -4 6 -21 17
-38 25 -45 20 -118 62 -131 75 -5 5 -18 10 -28 10 -9 0 -21 6 -25 13 -8 13
-25 23 -105 62 -21 10 -38 22 -38 26 0 4 -21 17 -46 29 -25 13 -48 29 -51 36
-3 8 -16 14 -29 14 -14 0 -27 7 -30 15 -4 8 -17 15 -30 15 -13 0 -24 4 -24 10
0 5 -15 16 -32 25 -46 20 -119 62 -132 75 -5 5 -18 10 -27 10 -9 0 -19 7 -23
15 -3 8 -16 15 -30 15 -13 0 -26 7 -30 15 -3 8 -14 15 -24 15 -11 0 -25 7 -32
15 -7 9 -28 23 -48 32 -19 9 -49 29 -66 45 -17 15 -40 28 -52 28 -12 0 -37 13
-55 30 -19 16 -39 30 -46 30 -7 0 -29 12 -50 26 -21 14 -48 30 -60 35 -13 5
-23 13 -23 19 0 5 -11 10 -25 10 -14 0 -28 7 -31 15 -4 8 -17 15 -30 15 -12 0
-27 6 -31 13 -4 6 -30 23 -56 35 -26 13 -59 35 -72 48 -13 13 -32 24 -42 24
-10 0 -33 14 -51 30 -18 17 -41 30 -51 30 -10 0 -24 7 -31 15 -7 8 -20 15 -30
15 -10 0 -20 6 -23 13 -2 7 -39 29 -81 50 -42 21 -76 43 -76 48 0 5 -8 9 -19
9 -10 0 -24 7 -31 15 -7 8 -19 15 -27 15 -8 0 -32 14 -53 30 -21 17 -42 30
-47 30 -12 0 -85 38 -92 48 -12 16 -61 42 -80 42 -10 0 -31 14 -44 30 -14 17
-29 30 -34 30 -4 0 -20 7 -35 14 l-28 15 0 -198z"/>
</g>
</svg>
