<?xml version="1.0" standalone="no"?>
<!DOCTYPE svg PUBLIC "-//W3C//DTD SVG 20010904//EN"
        "http://www.w3.org/TR/2001/REC-SVG-20010904/DTD/svg10.dtd">
<svg version="1.0" xmlns="http://www.w3.org/2000/svg"
     width="200.000000pt" height="200.000000pt" viewBox="0 0 200.000000 200.000000"
     preserveAspectRatio="xMidYMid meet">
    <metadata>
        Created by potrace 1.10, written by Peter Selinger 2001-2011
    </metadata>
    <g transform="translate(0.000000,200.000000) scale(0.100000,-0.100000)"
       fill="#32a6d7" stroke="none">
        <path d="M947 1900 c-26 -16 -49 -30 -51 -30 -2 0 -55 -30 -117 -66 -63 -37
-143 -83 -179 -104 -36 -20 -81 -46 -100 -57 -19 -11 -80 -46 -135 -78 -55
-32 -116 -67 -135 -78 -19 -10 -54 -30 -78 -44 l-42 -25 0 -142 c0 -138 1
-143 22 -154 13 -6 46 -25 73 -42 28 -16 57 -33 65 -37 8 -4 35 -19 60 -33 90
-53 236 -138 280 -163 25 -13 96 -54 159 -91 62 -36 115 -66 116 -66 1 0 29
-16 61 -35 56 -34 58 -34 83 -18 14 9 55 33 91 53 82 46 133 75 243 139 49 28
92 51 97 51 5 0 10 4 12 8 2 4 30 23 63 41 102 57 117 66 220 126 55 32 110
63 122 69 22 11 23 16 23 153 l0 142 -27 14 c-16 7 -73 40 -128 72 -135 79
-160 93 -235 135 -36 20 -84 48 -107 63 -24 15 -45 27 -48 27 -3 0 -22 11 -43
23 -20 13 -57 35 -82 49 -25 14 -85 48 -134 77 -49 28 -92 51 -95 51 -4 0 -28
-13 -54 -30z m236 -109 c95 -54 280 -160 412 -236 132 -75 246 -142 253 -148
9 -7 12 -43 10 -135 l-3 -125 -75 -42 c-97 -54 -271 -153 -385 -220 -49 -29
-108 -63 -130 -75 -22 -13 -53 -31 -70 -41 -16 -10 -48 -28 -70 -40 -22 -12
-52 -30 -67 -40 -14 -11 -37 -19 -51 -19 -13 0 -94 40 -178 89 -85 48 -224
128 -309 178 -85 49 -162 92 -170 96 -8 4 -55 31 -105 60 -64 37 -91 59 -96
77 -9 32 -11 168 -3 207 6 30 6 30 393 252 42 24 117 67 166 96 50 29 110 64
135 77 25 14 68 39 95 56 28 17 56 31 63 31 7 1 91 -43 185 -98z"/>
        <path d="M110 937 l0 -76 78 -44 c42 -24 118 -68 167 -97 118 -69 168 -97 235
-134 30 -16 57 -33 58 -38 2 -4 7 -8 11 -8 7 0 109 -57 241 -134 109 -64 95
-63 190 -8 47 27 105 60 130 74 25 14 86 49 135 78 90 53 195 113 257 148 18
11 78 45 133 77 55 32 112 65 127 74 26 15 28 20 28 88 l0 72 -57 -33 c-32
-18 -103 -59 -158 -91 -55 -32 -120 -69 -145 -83 -25 -14 -83 -47 -129 -74
-46 -26 -88 -48 -92 -48 -5 0 -9 -4 -9 -10 0 -5 -4 -10 -10 -10 -5 0 -33 -14
-62 -31 -63 -38 -93 -55 -177 -103 -58 -33 -65 -35 -81 -21 -9 8 -19 15 -22
15 -5 0 -48 24 -263 150 -88 51 -113 66 -245 140 -36 21 -105 61 -155 90 -50
29 -106 62 -125 72 -19 11 -41 25 -47 30 -10 8 -13 -6 -13 -65z m265 -120
c104 -61 235 -135 290 -166 55 -32 148 -85 207 -119 58 -34 116 -62 128 -62
22 0 99 37 165 78 22 14 69 42 105 62 146 82 168 95 235 135 39 23 97 57 130
75 90 50 97 53 140 81 60 39 85 45 85 20 0 -38 -13 -51 -104 -102 -50 -29
-155 -89 -232 -135 -78 -46 -145 -84 -148 -84 -4 0 -35 -18 -69 -39 -89 -56
-297 -171 -309 -171 -5 0 -22 8 -36 18 -15 10 -82 50 -150 88 -256 144 -333
188 -387 225 -22 14 -42 26 -45 25 -12 -3 -230 129 -235 142 -9 25 4 52 23 44
9 -3 102 -55 207 -115z"/>
        <path d="M112 658 l3 -73 80 -46 c44 -25 148 -85 230 -134 83 -48 170 -98 195
-111 25 -13 63 -35 85 -48 41 -26 102 -61 190 -111 28 -15 59 -34 70 -41 30
-21 40 -18 139 38 50 28 105 59 122 69 17 9 62 36 99 58 37 23 68 41 70 41 1
0 53 29 115 65 62 36 116 65 120 65 5 0 10 3 12 8 2 4 19 16 38 26 19 10 77
43 128 73 l92 55 0 69 c0 38 -2 69 -5 69 -4 0 -112 -62 -480 -275 -55 -32
-116 -67 -135 -78 -76 -42 -128 -72 -197 -114 -71 -42 -98 -51 -105 -35 -2 4
-30 23 -63 41 -33 19 -73 42 -90 51 -16 10 -75 44 -130 75 -55 32 -116 67
-135 78 -19 11 -60 34 -90 51 -30 16 -56 33 -58 38 -2 4 -7 8 -12 8 -4 0 -58
29 -120 65 -62 36 -116 65 -120 65 -4 0 -13 7 -20 15 -24 29 -31 14 -28 -57z
m183 -68 c22 -12 51 -30 65 -40 14 -9 61 -36 104 -59 44 -24 98 -55 120 -69
23 -14 75 -45 116 -67 41 -23 122 -70 180 -104 78 -46 112 -61 131 -57 14 3
66 29 115 59 49 30 125 73 169 97 44 24 91 51 105 60 14 9 72 43 130 75 58 32
143 81 190 110 47 28 97 56 113 63 26 11 27 10 27 -18 0 -32 -37 -63 -143
-119 -29 -16 -92 -52 -142 -81 -114 -68 -191 -111 -285 -165 -41 -23 -119 -67
-172 -98 -53 -32 -106 -57 -116 -57 -11 0 -68 29 -128 64 -60 36 -152 88 -204
117 -52 29 -113 64 -135 78 -22 14 -49 30 -60 36 -102 57 -188 106 -255 149
-76 48 -78 50 -72 82 l4 24 52 -29 c28 -16 69 -39 91 -51z"/>
    </g>
</svg>
