<?xml version="1.0" standalone="no"?>
<!DOCTYPE svg PUBLIC "-//W3C//DTD SVG 20010904//EN"
        "http://www.w3.org/TR/2001/REC-SVG-20010904/DTD/svg10.dtd">
<svg version="1.0" xmlns="http://www.w3.org/2000/svg"
     width="200.000000pt" height="200.000000pt" viewBox="0 0 200.000000 200.000000"
     preserveAspectRatio="xMidYMid meet">
    <metadata>
        Created by potrace 1.10, written by Peter Selinger 2001-2011
    </metadata>
    <g transform="translate(0.000000,200.000000) scale(0.100000,-0.100000)"
       fill="#5fa134" stroke="none">
        <path d="M973 1918 c-13 -6 -23 -15 -23 -20 0 -4 -4 -8 -9 -8 -5 0 -59 -29
-121 -65 -62 -36 -114 -65 -116 -65 -3 0 -21 -11 -42 -23 -49 -31 -189 -113
-389 -227 l-163 -93 0 -141 0 -141 68 -37 c91 -51 287 -163 397 -228 156 -92
258 -150 261 -150 2 0 37 -20 77 -45 74 -45 104 -53 123 -36 9 9 122 75 309
181 55 31 141 81 190 109 100 59 149 87 245 141 123 69 111 45 108 208 l-3
143 -30 17 c-16 9 -34 21 -40 25 -5 4 -93 55 -195 114 -102 58 -200 114 -218
124 -18 11 -63 36 -100 57 -176 101 -268 155 -276 163 -12 11 -25 11 -53 -3z"/>
        <path d="M110 931 l0 -68 83 -48 c45 -26 127 -73 182 -104 55 -32 145 -84 200
-116 55 -32 116 -67 135 -78 98 -55 132 -74 207 -119 l82 -49 53 30 c29 16 82
46 118 66 54 32 126 73 243 140 9 5 99 57 199 115 100 58 186 107 192 109 6 2
13 7 16 10 3 3 19 14 35 23 28 16 30 20 33 88 l3 72 -43 -24 c-49 -28 -76 -43
-213 -123 -55 -32 -130 -76 -167 -97 -37 -21 -82 -46 -100 -57 -18 -10 -108
-62 -199 -115 l-166 -96 -112 65 c-62 36 -116 65 -122 65 -5 0 -9 5 -9 10 0 6
-4 10 -9 10 -5 0 -60 30 -122 66 -63 37 -147 85 -187 108 -40 22 -81 46 -90
51 -9 6 -48 28 -87 49 -38 22 -86 50 -105 63 -19 13 -38 23 -42 23 -5 0 -8
-31 -8 -69z"/>
        <path d="M112 659 l3 -74 85 -47 c47 -26 90 -52 97 -57 7 -6 14 -11 16 -11 2
0 44 -23 93 -52 49 -28 132 -76 184 -105 52 -30 111 -64 130 -75 38 -23 143
-83 228 -131 60 -33 52 -34 157 27 28 16 64 37 80 46 17 9 75 43 130 75 55 32
115 66 133 77 18 10 63 36 100 57 37 21 108 61 157 90 50 28 97 56 105 61 8 6
30 18 48 27 31 16 32 18 32 85 0 37 -3 68 -6 68 -7 0 -111 -58 -249 -140 -49
-29 -119 -69 -155 -90 -133 -75 -157 -89 -245 -140 -180 -105 -225 -130 -235
-130 -6 0 -27 11 -48 23 -43 28 -161 96 -397 232 -185 106 -202 116 -320 183
-44 25 -90 52 -103 60 l-23 15 3 -74z"/>
    </g>
</svg>
