<?xml version="1.0" standalone="no"?>
<!DOCTYPE svg PUBLIC "-//W3C//DTD SVG 20010904//EN"
        "http://www.w3.org/TR/2001/REC-SVG-20010904/DTD/svg10.dtd">
<svg version="1.0" xmlns="http://www.w3.org/2000/svg"
     width="600.000000pt" height="600.000000pt" viewBox="0 0 600.000000 600.000000"
     preserveAspectRatio="xMidYMid meet">
    <metadata>
        Created by potrace 1.10, written by Peter Selinger 2001-2011
    </metadata>
    <g transform="translate(0.000000,600.000000) scale(0.100000,-0.100000)"
       fill="#32a6d7" stroke="none">
        <path d="M2960 5765 c0 -9 -9 -15 -25 -15 -14 0 -28 -7 -31 -15 -4 -8 -17 -15
-30 -15 -14 0 -27 -7 -30 -15 -4 -8 -14 -15 -24 -15 -10 0 -23 -7 -30 -15 -7
-8 -20 -15 -29 -15 -10 0 -30 -13 -46 -30 -16 -16 -38 -30 -50 -30 -11 0 -32
-13 -45 -30 -16 -18 -35 -29 -51 -30 -15 0 -29 -7 -33 -15 -3 -8 -14 -15 -25
-15 -11 0 -24 -6 -28 -12 -9 -14 -37 -33 -70 -47 -11 -6 -24 -15 -28 -20 -3
-6 -15 -11 -26 -11 -11 0 -22 -7 -25 -15 -4 -8 -17 -15 -30 -15 -14 0 -27 -7
-30 -15 -4 -8 -16 -15 -28 -15 -11 0 -34 -14 -50 -30 -16 -17 -40 -30 -53 -30
-13 0 -26 -7 -29 -15 -4 -8 -14 -15 -25 -15 -10 0 -22 -6 -26 -13 -4 -7 -25
-21 -47 -32 -21 -11 -40 -26 -43 -32 -3 -7 -16 -13 -29 -13 -14 0 -27 -7 -30
-15 -4 -8 -16 -15 -28 -15 -12 0 -33 -13 -46 -30 -14 -16 -35 -29 -48 -30 -12
0 -25 -7 -28 -15 -4 -8 -17 -15 -30 -15 -14 0 -27 -7 -30 -15 -4 -8 -17 -15
-30 -15 -14 0 -27 -7 -30 -15 -4 -8 -14 -15 -24 -15 -10 0 -23 -7 -30 -15 -7
-8 -17 -15 -22 -15 -6 0 -27 -13 -48 -30 -21 -16 -46 -30 -57 -30 -10 0 -30
-13 -43 -30 -15 -17 -35 -29 -49 -30 -13 0 -40 -13 -60 -28 -20 -16 -44 -32
-53 -35 -10 -4 -18 -11 -18 -17 0 -5 -9 -10 -20 -10 -11 0 -23 -7 -26 -15 -4
-8 -17 -15 -30 -15 -14 0 -27 -7 -30 -15 -4 -8 -17 -15 -30 -15 -14 0 -27 -7
-30 -15 -4 -8 -16 -15 -28 -15 -11 0 -34 -14 -50 -30 -16 -17 -38 -30 -48 -30
-11 0 -31 -13 -45 -30 -18 -22 -33 -30 -57 -30 -23 0 -39 -8 -56 -30 -14 -16
-32 -29 -41 -30 -9 0 -22 -7 -29 -15 -7 -8 -22 -15 -34 -15 -12 0 -33 -13 -46
-30 -14 -16 -35 -29 -46 -30 -12 0 -27 -7 -34 -15 -7 -8 -21 -15 -31 -15 -10
0 -22 -6 -26 -12 -4 -7 -26 -22 -48 -32 -22 -11 -61 -33 -87 -50 l-48 -31 0
-432 c0 -422 0 -433 19 -433 11 0 22 -4 26 -9 3 -6 27 -20 53 -33 26 -13 51
-29 55 -35 4 -7 14 -13 21 -13 8 0 19 -7 26 -15 7 -8 24 -15 39 -15 16 -1 35
-12 51 -30 13 -17 34 -30 46 -30 12 0 27 -7 34 -15 7 -8 20 -15 29 -15 9 -1
27 -14 41 -30 16 -20 33 -30 51 -30 15 0 32 -7 39 -15 7 -8 18 -15 25 -15 7 0
15 -7 19 -15 3 -8 16 -15 30 -15 13 0 26 -6 29 -13 2 -7 22 -21 43 -32 22 -11
43 -26 47 -32 4 -7 19 -13 31 -13 13 0 26 -7 30 -15 3 -8 16 -15 30 -15 13 0
26 -7 30 -15 3 -8 12 -15 19 -15 8 0 20 -7 27 -15 7 -8 23 -15 36 -15 14 0 28
-9 35 -22 15 -28 28 -38 54 -38 23 -1 65 -33 65 -49 0 -6 13 -11 29 -11 16 0
31 -6 35 -15 3 -8 12 -15 21 -15 8 0 34 -13 57 -30 22 -16 47 -30 53 -30 7 0
15 -7 19 -15 3 -8 16 -15 30 -15 13 0 26 -7 30 -15 3 -8 16 -15 30 -15 13 0
26 -7 30 -15 3 -8 16 -15 28 -15 13 -1 34 -14 48 -30 13 -17 34 -30 46 -30 12
0 27 -7 34 -15 7 -8 18 -15 26 -15 7 0 28 -14 46 -30 18 -17 40 -30 49 -30 9
0 19 -7 23 -15 3 -8 14 -15 24 -15 11 0 25 -7 32 -15 7 -8 20 -15 30 -15 9 0
30 -13 46 -30 16 -16 39 -30 50 -30 12 0 24 -7 28 -15 3 -8 16 -15 30 -15 13
0 26 -7 30 -15 3 -8 16 -15 30 -15 13 0 26 -7 30 -15 3 -8 12 -15 21 -15 16 0
34 -12 63 -42 9 -10 22 -18 28 -18 6 0 17 -7 24 -15 7 -8 24 -15 39 -15 16 -1
35 -12 51 -30 13 -17 33 -30 45 -30 11 0 35 -14 54 -30 18 -17 39 -30 46 -30
7 0 18 -7 25 -15 7 -8 20 -15 30 -15 10 0 20 -7 24 -15 3 -8 16 -15 30 -15 13
0 26 -7 30 -15 3 -8 16 -15 30 -15 13 0 26 -7 30 -15 3 -8 14 -15 25 -15 10 0
21 -7 25 -15 3 -8 12 -15 21 -15 9 0 18 7 21 15 4 8 14 15 23 15 9 0 29 14 45
30 20 21 39 30 61 30 23 0 37 8 53 30 13 17 31 30 41 30 10 0 33 14 51 30 18
17 41 30 51 30 11 0 22 7 25 15 4 8 17 15 30 15 14 0 27 7 30 15 4 8 17 15 30
15 12 0 27 6 31 13 4 6 26 21 48 32 22 10 56 32 76 47 20 15 45 28 56 28 10 0
30 13 43 30 14 16 35 29 47 30 12 0 28 7 37 15 8 8 21 15 28 15 7 0 26 14 42
30 16 17 38 30 49 30 23 0 87 37 87 51 0 5 11 9 25 9 14 0 28 7 31 15 4 8 15
15 25 15 11 0 33 13 49 30 16 16 39 30 50 30 11 0 23 7 26 15 4 8 17 15 30 15
14 0 27 7 30 15 4 8 14 15 24 15 10 0 23 7 30 15 7 8 22 15 34 15 13 0 32 13
44 30 14 19 32 30 46 30 15 0 34 12 49 30 14 16 35 30 47 30 11 0 23 7 26 15
4 8 17 15 30 15 14 0 27 7 30 15 4 8 14 15 23 15 9 0 22 5 28 11 13 13 47 33
81 48 12 6 22 15 22 21 0 5 11 10 25 10 14 0 28 7 31 15 4 8 16 15 28 15 12 0
33 13 46 30 16 18 35 29 51 30 15 0 32 7 39 15 7 8 18 15 24 15 6 0 24 14 40
30 16 17 38 30 48 30 10 0 21 7 24 15 4 8 17 15 30 15 14 0 27 7 30 15 4 8 17
15 30 15 12 0 27 6 31 13 9 14 37 32 71 47 12 5 22 14 22 20 0 5 11 10 25 10
14 0 28 7 31 15 4 8 17 15 30 15 14 0 27 7 30 15 4 8 14 15 23 15 9 0 30 12
48 28 42 37 90 62 119 62 l24 0 0 431 0 431 -22 19 c-13 10 -35 18 -49 19 -15
0 -32 7 -39 15 -7 8 -18 15 -25 15 -7 0 -15 6 -18 13 -2 7 -22 21 -43 32 -22
11 -43 26 -47 33 -4 6 -19 12 -31 12 -13 0 -26 7 -30 15 -3 8 -14 15 -25 15
-11 0 -35 14 -53 30 -18 17 -40 30 -49 30 -9 0 -19 7 -23 15 -3 8 -16 15 -30
15 -13 0 -26 7 -30 15 -3 8 -16 15 -30 15 -13 0 -26 7 -30 15 -3 8 -14 15 -24
15 -10 0 -32 13 -48 30 -16 16 -36 30 -45 30 -9 0 -22 7 -29 15 -7 8 -22 15
-34 15 -11 1 -32 14 -46 30 -13 17 -32 30 -41 30 -22 0 -89 39 -89 51 0 5 -8
9 -19 9 -10 0 -24 7 -31 15 -7 8 -18 15 -25 15 -7 0 -15 7 -19 15 -3 8 -16 15
-30 15 -13 0 -26 7 -30 15 -3 8 -16 15 -30 15 -13 0 -26 7 -30 15 -3 8 -16 15
-30 15 -13 0 -26 6 -29 14 -3 7 -26 24 -52 36 -25 12 -53 33 -62 46 -11 17
-25 24 -48 24 -20 0 -35 6 -39 15 -3 8 -12 15 -20 15 -7 0 -16 7 -20 15 -3 8
-14 15 -24 15 -11 0 -25 7 -32 15 -7 8 -22 15 -34 15 -11 1 -32 14 -46 30 -13
17 -34 30 -46 30 -12 0 -24 7 -28 15 -3 8 -16 15 -30 15 -13 0 -26 7 -30 15
-3 8 -15 15 -26 15 -11 0 -23 7 -26 15 -4 8 -16 15 -28 15 -13 0 -36 13 -52
30 -16 16 -39 30 -50 30 -12 0 -24 7 -28 15 -3 8 -16 15 -28 15 -13 1 -34 14
-48 30 -17 22 -33 30 -55 30 -24 0 -35 7 -45 26 -8 14 -26 28 -42 31 -15 3
-33 12 -39 19 -6 8 -17 14 -24 14 -7 0 -15 7 -19 15 -3 8 -16 15 -30 15 -13 0
-26 7 -30 15 -3 8 -16 15 -30 15 -13 0 -26 7 -30 15 -3 8 -13 15 -22 15 -9 0
-33 14 -54 30 -21 17 -43 30 -48 30 -6 0 -26 14 -44 30 -21 19 -43 30 -63 30
-22 0 -35 8 -50 30 -17 25 -26 30 -62 30 -32 0 -43 -4 -43 -15z m110 -118 c30
-13 69 -32 87 -42 32 -20 57 -35 143 -87 25 -15 77 -44 115 -65 74 -39 95 -51
172 -97 162 -97 229 -136 236 -136 4 0 31 -16 60 -35 28 -19 55 -35 60 -35 4
0 25 -11 45 -25 20 -14 44 -25 52 -25 9 0 31 -13 51 -29 19 -16 59 -42 89 -59
127 -69 156 -86 170 -97 12 -11 72 -43 215 -119 11 -6 34 -21 52 -33 17 -13
35 -23 41 -23 5 0 40 -20 78 -45 37 -25 72 -45 76 -45 5 0 61 -33 126 -73 124
-78 141 -88 239 -137 35 -17 65 -35 68 -41 4 -5 15 -9 26 -9 11 0 22 -6 25
-14 3 -8 29 -24 57 -36 29 -13 54 -26 57 -30 3 -4 23 -16 45 -28 22 -11 51
-32 65 -47 14 -15 35 -31 46 -35 13 -5 25 -22 29 -42 13 -54 17 -623 5 -668
-8 -28 -19 -44 -40 -55 -17 -9 -30 -19 -30 -24 0 -7 -49 -38 -125 -78 -16 -9
-37 -20 -45 -25 -8 -5 -26 -14 -40 -21 -14 -7 -43 -24 -65 -38 -23 -15 -70
-41 -105 -59 -36 -18 -102 -57 -147 -86 -46 -30 -115 -71 -155 -92 -40 -21
-92 -50 -115 -65 -22 -14 -85 -49 -139 -76 -54 -28 -100 -55 -103 -60 -7 -10
-139 -89 -231 -137 -36 -19 -85 -48 -110 -64 -25 -16 -64 -40 -87 -52 -134
-73 -243 -135 -320 -181 -49 -30 -106 -62 -128 -72 -22 -10 -53 -29 -68 -41
-16 -13 -33 -24 -38 -24 -13 0 -183 -96 -252 -143 -79 -54 -199 -115 -241
-122 -26 -5 -47 -1 -86 19 -28 14 -55 26 -59 26 -11 0 -160 86 -180 104 -10 9
-22 16 -27 16 -6 0 -26 12 -45 26 -19 14 -63 41 -99 60 -36 19 -96 55 -135 79
-38 24 -76 44 -82 44 -7 1 -62 31 -123 69 -60 37 -129 78 -153 92 -24 14 -55
32 -68 41 -47 31 -195 114 -279 156 -47 24 -105 57 -130 73 -25 16 -58 36 -75
45 -16 8 -46 25 -65 36 -148 91 -300 177 -320 184 -14 4 -42 20 -62 36 -20 16
-63 43 -95 60 -32 18 -72 42 -90 55 -17 13 -38 24 -46 24 -8 0 -25 8 -38 19
-13 10 -40 27 -60 37 -198 102 -247 137 -274 189 -19 37 -20 62 -22 350 -3
303 -2 311 20 354 24 49 85 96 195 152 34 18 67 38 73 46 6 7 17 13 24 13 6 0
31 14 54 30 22 17 60 38 84 47 23 9 53 24 67 34 75 50 151 97 202 124 31 16
107 59 168 95 61 36 123 71 138 79 15 7 36 21 47 31 20 17 84 53 235 133 47
24 108 58 135 75 28 17 65 38 82 46 18 8 53 29 77 45 25 17 48 31 53 31 4 0
30 16 57 35 27 19 53 35 57 35 4 0 31 16 60 35 30 19 59 35 65 35 6 0 23 9 37
20 26 21 88 56 199 113 75 38 163 92 193 118 34 29 239 129 265 129 14 0 50
-10 80 -23z"/>
        <path d="M320 2800 c0 -207 1 -221 20 -240 11 -11 26 -20 34 -20 7 0 19 -7 26
-15 7 -8 18 -15 25 -15 7 0 18 -7 25 -15 7 -8 20 -15 30 -15 10 0 20 -7 24
-15 3 -8 16 -15 30 -15 13 0 26 -7 30 -15 3 -8 16 -15 28 -15 13 -1 34 -14 48
-30 14 -17 34 -30 47 -30 13 0 31 -12 45 -30 12 -16 30 -30 39 -30 22 0 81
-31 92 -47 4 -7 19 -13 31 -13 13 0 26 -7 30 -15 3 -8 14 -15 25 -15 11 0 35
-13 53 -30 18 -16 40 -30 49 -30 9 0 19 -7 23 -15 3 -8 16 -15 30 -15 13 0 26
-7 30 -15 3 -8 16 -15 30 -15 13 0 26 -7 30 -15 3 -8 13 -15 23 -15 10 0 32
-12 48 -27 35 -33 88 -63 112 -63 10 -1 29 -14 43 -30 13 -17 34 -30 46 -30
12 0 27 -7 34 -15 7 -8 19 -15 26 -15 8 0 14 -4 14 -9 0 -5 21 -20 48 -33 26
-13 51 -29 55 -35 4 -7 19 -13 31 -13 13 0 26 -7 30 -15 3 -8 16 -15 30 -15
13 0 26 -7 30 -15 3 -8 14 -15 25 -15 10 0 33 -13 51 -30 18 -16 41 -30 51
-30 10 0 28 -13 41 -30 13 -19 31 -30 45 -30 25 0 73 -26 86 -47 4 -7 16 -13
26 -13 10 0 24 -7 31 -15 7 -8 22 -15 34 -15 11 -1 32 -14 46 -30 13 -17 34
-30 46 -30 12 0 24 -7 28 -15 3 -8 16 -15 30 -15 13 0 26 -7 30 -15 3 -8 12
-15 19 -15 8 0 20 -7 27 -15 7 -8 21 -15 32 -15 19 0 36 -11 66 -42 9 -10 24
-18 33 -18 9 0 22 -7 29 -15 7 -8 22 -15 34 -15 11 -1 32 -14 46 -30 16 -20
33 -30 51 -30 19 0 34 -9 49 -30 12 -17 27 -30 35 -30 18 0 78 -32 88 -47 4
-7 19 -13 31 -13 13 0 26 -7 30 -15 3 -8 17 -15 31 -15 15 0 25 -6 25 -14 0
-16 37 -28 66 -20 11 3 28 18 39 35 15 21 28 29 50 29 20 0 42 11 63 30 18 17
37 30 41 30 4 0 27 14 49 30 23 17 49 30 57 30 9 0 18 7 21 15 4 8 17 15 30
15 14 0 27 7 30 15 4 8 17 15 30 15 12 0 27 6 31 13 9 13 39 34 63 43 8 3 22
10 30 15 8 5 25 13 38 19 12 5 22 14 22 20 0 5 11 10 25 10 14 0 28 7 31 15 4
8 16 15 28 15 12 0 33 13 46 30 14 16 34 29 45 30 11 0 33 14 49 30 16 17 39
30 52 30 12 0 24 7 28 15 3 8 15 15 26 15 11 0 23 7 26 15 4 8 17 15 30 15 14
0 27 7 30 15 4 8 17 15 30 15 12 0 27 6 31 13 9 14 37 32 71 47 12 5 22 14 22
20 0 5 10 10 23 10 12 0 35 14 51 30 19 20 39 30 59 30 19 0 36 8 48 24 11 13
40 34 65 46 25 13 48 29 51 36 3 8 16 14 29 14 14 0 27 7 30 15 4 8 17 15 30
15 14 0 27 7 30 15 4 8 17 15 30 15 12 0 27 6 31 13 4 8 15 17 23 21 17 8 38
21 97 59 24 15 51 27 61 27 10 0 29 13 42 30 14 16 35 29 46 30 12 0 27 7 34
15 7 8 20 15 29 15 9 0 28 13 41 30 16 18 35 29 51 30 15 0 32 7 39 15 7 8 19
15 27 15 7 0 16 7 19 15 4 8 17 15 30 15 12 0 27 6 31 12 4 7 25 22 47 33 21
11 41 25 43 32 3 7 16 13 29 13 14 0 27 7 30 15 4 8 17 15 30 15 14 0 27 7 30
15 4 8 12 15 19 15 7 0 18 7 25 15 7 8 23 15 36 15 14 0 31 11 44 30 14 20 30
30 48 30 15 1 37 9 49 19 21 18 22 25 24 237 1 194 -1 219 -15 222 -9 2 -16
-1 -16 -8 0 -6 -10 -15 -22 -20 -13 -6 -36 -19 -53 -30 -16 -11 -40 -24 -52
-30 -13 -5 -23 -14 -23 -20 0 -5 -11 -10 -25 -10 -14 0 -28 -7 -31 -15 -4 -8
-16 -15 -28 -15 -12 0 -33 -13 -46 -30 -16 -18 -35 -29 -51 -30 -15 0 -32 -7
-39 -15 -7 -8 -18 -15 -24 -15 -6 0 -24 -14 -40 -30 -20 -21 -39 -30 -61 -30
-22 0 -38 -8 -55 -30 -14 -16 -34 -29 -46 -30 -11 0 -34 -13 -50 -30 -16 -16
-37 -30 -47 -30 -10 0 -20 -7 -23 -15 -4 -8 -17 -15 -30 -15 -14 0 -27 -7 -30
-15 -4 -8 -17 -15 -30 -15 -14 0 -27 -7 -30 -15 -4 -8 -14 -15 -24 -15 -10 0
-23 -7 -30 -15 -7 -8 -18 -15 -25 -15 -7 0 -28 -13 -46 -30 -19 -16 -43 -30
-54 -30 -12 0 -32 -13 -45 -30 -17 -19 -35 -29 -53 -30 -15 0 -30 -7 -33 -15
-4 -8 -14 -15 -23 -15 -9 0 -29 -14 -45 -30 -16 -17 -38 -30 -48 -30 -10 0
-21 -7 -24 -15 -4 -8 -17 -15 -30 -15 -14 0 -27 -7 -30 -15 -4 -8 -17 -15 -30
-15 -14 0 -27 -7 -30 -15 -4 -8 -16 -15 -28 -15 -11 0 -34 -14 -50 -30 -16
-17 -39 -30 -52 -30 -12 0 -24 -7 -28 -15 -3 -8 -14 -15 -25 -15 -11 0 -24 -6
-28 -12 -11 -17 -70 -48 -92 -48 -9 0 -27 -13 -39 -30 -14 -18 -32 -30 -45
-30 -13 0 -33 -13 -47 -30 -14 -16 -35 -29 -48 -30 -12 0 -25 -7 -28 -15 -4
-8 -17 -15 -30 -15 -14 0 -27 -7 -30 -15 -4 -8 -17 -15 -30 -15 -14 0 -27 -7
-30 -15 -4 -8 -12 -15 -19 -15 -6 0 -31 -14 -53 -30 -23 -17 -49 -30 -57 -30
-9 0 -18 -7 -21 -15 -4 -8 -16 -15 -28 -15 -12 0 -33 -13 -46 -30 -15 -17 -35
-29 -50 -30 -31 0 -44 -9 -59 -37 -7 -14 -21 -23 -35 -23 -13 0 -26 -7 -30
-15 -3 -8 -15 -15 -26 -15 -11 0 -23 -7 -26 -15 -4 -8 -17 -15 -30 -15 -14 0
-27 -7 -30 -15 -4 -8 -16 -15 -28 -15 -11 0 -34 -14 -50 -30 -20 -21 -33 -27
-40 -20 -5 5 -18 10 -28 10 -9 0 -32 16 -51 35 -19 19 -43 35 -54 35 -11 0
-26 7 -33 15 -7 8 -21 15 -31 15 -11 0 -19 5 -19 10 0 6 -10 15 -22 21 -34 15
-68 35 -81 48 -6 6 -19 11 -28 11 -9 0 -19 7 -23 15 -3 8 -16 15 -30 15 -13 0
-26 7 -30 15 -3 8 -14 15 -25 15 -11 0 -35 14 -53 30 -18 17 -40 30 -50 30
-10 0 -27 14 -40 30 -15 20 -30 30 -49 30 -14 0 -32 7 -39 15 -7 8 -18 15 -25
15 -7 0 -15 7 -19 15 -3 8 -16 15 -30 15 -13 0 -26 7 -30 15 -3 8 -15 15 -26
15 -11 0 -34 13 -50 30 -16 16 -38 30 -49 30 -10 0 -21 7 -25 15 -3 8 -16 15
-30 15 -13 0 -26 7 -30 15 -3 8 -12 15 -19 15 -8 0 -20 7 -27 15 -7 8 -24 15
-39 15 -16 1 -35 12 -51 30 -13 17 -32 30 -41 30 -9 0 -22 7 -29 15 -7 8 -22
15 -34 15 -11 1 -32 14 -46 30 -15 19 -33 30 -50 30 -16 0 -37 12 -55 30 -16
17 -36 30 -46 30 -9 0 -22 7 -29 15 -7 8 -18 15 -25 15 -7 0 -15 7 -19 15 -3
8 -16 15 -30 15 -13 0 -26 7 -30 15 -3 8 -16 15 -30 15 -13 0 -26 7 -30 15 -3
8 -16 15 -30 15 -13 0 -26 6 -29 13 -2 7 -22 21 -43 32 -22 11 -51 32 -66 47
-17 18 -37 28 -56 28 -18 0 -38 10 -57 30 -16 17 -35 30 -43 30 -8 0 -31 14
-52 30 -21 17 -45 30 -53 30 -8 0 -17 7 -21 15 -3 8 -16 15 -30 15 -13 0 -26
7 -30 15 -3 8 -16 15 -30 15 -13 0 -26 7 -30 15 -3 8 -15 15 -26 15 -11 0 -23
7 -26 15 -4 8 -15 15 -25 15 -20 0 -37 11 -67 43 -9 9 -26 17 -37 17 -11 1
-31 14 -45 30 -14 18 -34 30 -47 30 -13 0 -26 7 -29 15 -4 8 -14 15 -24 15
-11 0 -34 14 -52 30 -18 17 -38 30 -46 30 -7 0 -15 7 -18 15 -4 8 -12 15 -20
15 -12 0 -14 -39 -14 -220z m180 15 c7 -8 16 -15 21 -15 4 0 27 -13 51 -29 24
-15 73 -45 110 -64 37 -20 97 -54 134 -77 36 -22 71 -40 77 -40 5 0 24 -10 41
-23 17 -12 44 -28 59 -35 16 -7 45 -25 65 -41 20 -16 48 -32 62 -36 13 -4 36
-16 50 -25 14 -9 54 -35 90 -56 36 -22 74 -45 85 -52 11 -7 36 -20 55 -30 19
-9 37 -20 38 -24 2 -5 10 -8 17 -8 8 0 22 -8 32 -19 10 -10 32 -22 50 -25 17
-4 37 -14 44 -22 7 -9 31 -25 53 -36 23 -11 48 -26 56 -33 8 -7 49 -31 90 -53
41 -21 116 -63 165 -92 50 -29 100 -56 113 -61 13 -5 38 -20 57 -34 18 -14 66
-42 107 -62 40 -20 87 -47 104 -60 17 -12 36 -23 41 -23 6 0 30 -16 53 -35 23
-19 48 -35 56 -35 8 0 27 -8 42 -18 48 -32 66 -42 109 -62 22 -11 70 -38 105
-59 87 -53 231 -121 255 -121 48 0 248 87 298 130 11 10 47 31 80 47 33 17 92
50 130 73 70 43 135 80 230 128 28 14 68 38 90 53 64 44 126 81 185 112 30 16
62 35 70 42 8 7 44 27 79 44 35 17 71 37 80 45 9 8 51 31 95 51 43 20 88 45
99 56 12 10 26 19 33 19 7 0 19 7 28 15 8 8 43 31 78 50 56 31 101 56 158 90
10 6 24 16 31 22 8 6 55 32 104 59 50 26 101 56 114 66 13 10 30 18 38 18 8 0
29 11 47 25 18 14 36 25 40 25 5 0 22 10 39 23 34 24 129 79 222 128 33 17 67
38 76 46 17 15 115 53 136 53 27 0 44 -58 37 -121 -7 -61 -40 -119 -68 -119
-7 0 -21 -10 -32 -21 -10 -12 -37 -30 -59 -41 -22 -10 -61 -31 -87 -46 -26
-15 -71 -40 -100 -55 -29 -16 -60 -34 -68 -41 -8 -8 -58 -36 -110 -63 -148
-78 -194 -104 -211 -119 -8 -8 -20 -14 -25 -14 -6 0 -46 -23 -90 -52 -43 -28
-115 -70 -159 -93 -44 -22 -124 -68 -178 -100 -127 -77 -168 -101 -253 -149
-38 -21 -106 -61 -151 -87 -45 -27 -87 -49 -93 -49 -6 0 -26 -11 -43 -24 -41
-30 -252 -156 -261 -156 -4 0 -22 -11 -39 -24 -18 -13 -75 -45 -127 -72 -52
-26 -108 -58 -123 -71 -16 -12 -34 -23 -41 -23 -7 0 -29 -11 -49 -24 -19 -13
-74 -45 -121 -70 -92 -50 -161 -61 -186 -31 -7 8 -18 15 -26 15 -7 0 -19 6
-27 14 -14 15 -55 37 -137 77 -25 12 -61 34 -80 49 -19 14 -54 36 -77 48 -23
12 -62 34 -85 49 -62 40 -68 43 -175 99 -141 74 -301 166 -373 214 -14 10 -45
27 -69 39 -23 12 -68 40 -99 62 -31 21 -63 39 -69 39 -7 0 -42 18 -78 40 -36
22 -71 40 -78 40 -7 0 -29 11 -48 25 -45 34 -223 140 -313 187 -39 21 -82 47
-94 58 -13 11 -32 20 -41 20 -10 0 -36 14 -57 31 -22 17 -68 45 -104 63 -74
36 -200 109 -245 142 -16 12 -46 29 -65 38 -59 27 -108 60 -143 97 -30 30 -35
43 -41 102 -9 91 1 107 70 116 6 0 17 -6 24 -14z"/>
        <path d="M324 2178 c-5 -7 -8 -109 -6 -226 2 -176 5 -214 17 -217 27 -9 40
-15 70 -35 17 -11 37 -23 45 -27 8 -3 19 -12 23 -20 4 -7 19 -13 31 -13 13 0
26 -7 30 -15 3 -8 16 -15 30 -15 13 0 26 -7 30 -15 3 -8 14 -15 25 -15 11 0
32 -12 48 -26 15 -14 39 -28 53 -31 14 -2 35 -18 45 -34 14 -20 28 -29 48 -29
28 0 43 -9 75 -42 9 -10 27 -18 39 -18 13 0 23 -5 23 -10 0 -6 10 -15 23 -20
33 -15 61 -33 70 -47 4 -7 19 -13 31 -13 13 0 26 -7 30 -15 3 -8 16 -15 30
-15 13 0 26 -7 30 -15 3 -8 15 -15 26 -15 11 0 23 -7 26 -15 4 -8 16 -15 28
-15 13 0 36 -13 52 -30 16 -16 39 -30 50 -30 12 0 24 -7 28 -15 3 -8 16 -15
28 -15 13 -1 34 -14 48 -30 14 -17 34 -30 47 -30 13 0 23 -5 23 -10 0 -6 10
-15 23 -20 12 -6 30 -14 40 -20 9 -5 25 -15 35 -20 9 -6 24 -13 32 -17 8 -3
19 -12 23 -20 4 -7 19 -13 31 -13 13 0 26 -7 30 -15 3 -8 16 -15 30 -15 13 0
26 -7 30 -15 3 -8 12 -15 21 -15 8 0 34 -14 57 -30 22 -17 45 -30 49 -30 4 0
23 -13 41 -30 20 -19 43 -30 61 -30 19 0 36 -10 54 -30 13 -16 32 -30 40 -30
8 0 32 -13 53 -30 21 -16 45 -30 53 -30 8 0 17 -7 21 -15 3 -8 16 -15 30 -15
13 0 26 -7 30 -15 3 -8 16 -15 30 -15 13 0 26 -7 30 -15 3 -8 14 -15 24 -15
11 0 25 -7 32 -15 7 -8 18 -15 24 -15 7 0 25 -13 41 -30 17 -18 39 -30 54 -30
16 -1 35 -12 51 -30 13 -17 32 -30 41 -30 19 0 78 -29 94 -46 20 -21 60 -44
78 -44 18 0 35 -11 65 -43 9 -9 27 -17 39 -17 13 0 23 -6 23 -14 0 -10 15 -15
50 -18 59 -4 70 -1 70 18 0 9 11 14 29 14 16 0 31 6 35 15 3 8 14 15 25 15 11
0 24 6 28 13 4 6 39 27 77 46 37 19 70 41 73 48 3 7 16 13 29 13 14 0 27 7 30
15 4 8 17 15 30 15 14 0 27 7 30 15 4 8 17 15 30 15 12 0 27 6 31 12 9 15 37
33 71 48 12 5 22 14 22 20 0 5 6 10 14 10 7 0 19 7 26 15 7 8 24 15 39 15 18
0 35 10 51 30 14 16 34 29 46 30 11 0 34 13 50 30 16 16 37 30 47 30 10 0 20
7 23 15 4 8 17 15 30 15 14 0 27 7 30 15 4 8 17 15 30 15 14 0 27 7 30 15 4 8
17 15 30 15 14 0 27 6 30 14 3 8 15 17 27 20 12 3 34 17 49 31 15 14 35 25 46
25 10 0 29 13 42 30 15 18 35 29 50 30 25 0 64 21 85 44 18 21 64 46 82 46 10
0 33 14 51 30 18 17 42 30 53 30 11 0 22 7 25 15 4 8 17 15 30 15 14 0 27 7
30 15 4 8 12 15 19 15 7 0 15 7 19 15 3 8 14 15 24 15 11 0 25 7 32 15 7 8 21
15 32 15 10 0 21 7 24 15 4 8 16 15 29 15 13 0 25 7 29 15 3 8 16 15 29 15 14
0 32 12 45 30 14 19 32 30 46 30 15 0 34 12 49 30 14 17 34 30 45 30 11 0 25
7 32 15 7 8 21 15 32 15 10 0 21 7 24 15 4 8 17 15 30 15 14 0 27 7 30 15 4 8
13 15 21 15 8 0 32 13 53 30 21 16 45 30 54 30 9 0 19 7 22 15 4 8 16 15 28
15 11 0 34 14 50 30 19 20 39 30 58 30 22 0 33 8 46 30 9 16 23 30 31 30 25 0
87 34 104 56 14 18 16 54 17 218 1 107 -1 200 -5 206 -10 16 -32 12 -52 -8
-10 -11 -34 -27 -53 -38 -19 -10 -39 -25 -43 -31 -4 -7 -17 -13 -28 -13 -11 0
-22 -7 -25 -15 -4 -8 -17 -15 -30 -15 -14 0 -27 -7 -30 -15 -4 -8 -16 -15 -28
-15 -11 0 -34 -14 -50 -30 -16 -17 -39 -30 -51 -30 -13 0 -28 -7 -35 -15 -7
-8 -19 -15 -27 -15 -7 0 -16 -7 -19 -15 -4 -8 -14 -15 -23 -15 -9 0 -31 -13
-49 -30 -18 -16 -42 -30 -53 -30 -11 0 -22 -7 -25 -15 -4 -8 -16 -15 -28 -15
-12 0 -33 -13 -46 -30 -14 -16 -35 -29 -48 -30 -12 0 -25 -7 -28 -15 -4 -8
-17 -15 -30 -15 -14 0 -27 -7 -30 -15 -4 -8 -17 -15 -30 -15 -14 0 -27 -7 -30
-15 -4 -8 -14 -15 -23 -15 -9 0 -22 -5 -28 -11 -13 -13 -47 -33 -80 -48 -13
-6 -23 -15 -23 -21 0 -5 -10 -10 -23 -10 -13 0 -33 -13 -47 -30 -17 -19 -34
-29 -53 -30 -19 0 -38 -10 -55 -30 -15 -17 -34 -30 -43 -30 -9 0 -22 -7 -29
-15 -7 -8 -19 -15 -27 -15 -7 0 -16 -7 -19 -15 -4 -8 -17 -15 -30 -15 -14 0
-27 -7 -30 -15 -4 -8 -17 -15 -30 -15 -14 0 -27 -7 -30 -15 -4 -8 -16 -15 -28
-15 -12 0 -29 -8 -38 -17 -28 -30 -47 -43 -61 -43 -7 0 -27 -13 -43 -30 -19
-19 -39 -30 -59 -30 -21 0 -39 -9 -55 -28 -14 -16 -38 -32 -53 -36 -15 -3 -27
-11 -27 -16 0 -6 -10 -10 -23 -10 -13 0 -33 -13 -47 -30 -16 -18 -35 -29 -51
-30 -15 0 -29 -7 -33 -15 -3 -8 -15 -15 -26 -15 -11 0 -23 -7 -26 -15 -4 -8
-14 -15 -24 -15 -11 0 -21 -4 -24 -9 -4 -5 -27 -19 -52 -31 -25 -13 -48 -29
-51 -36 -3 -8 -16 -14 -29 -14 -14 0 -27 -7 -30 -15 -4 -8 -16 -15 -28 -15
-12 0 -29 -8 -38 -18 -31 -33 -47 -42 -72 -42 -18 0 -30 -9 -41 -30 -10 -19
-23 -30 -37 -30 -24 0 -88 -37 -88 -51 0 -5 -11 -9 -25 -9 -14 0 -28 -7 -31
-15 -4 -8 -14 -15 -24 -15 -9 0 -25 -9 -35 -20 -25 -28 -39 -25 -78 15 -19 19
-43 35 -54 35 -12 0 -23 7 -27 15 -3 8 -17 15 -31 15 -14 0 -25 4 -25 9 0 10
-9 15 -97 61 -26 14 -52 31 -56 37 -4 7 -17 13 -28 13 -11 0 -22 7 -25 15 -4
8 -18 15 -33 15 -16 1 -35 12 -51 30 -13 17 -32 30 -41 30 -23 0 -74 28 -112
63 -18 15 -39 27 -48 27 -9 0 -19 7 -23 15 -3 8 -16 15 -30 15 -13 0 -26 7
-30 15 -3 8 -14 15 -25 15 -11 0 -35 14 -53 30 -18 17 -40 30 -49 30 -9 0 -19
7 -23 15 -3 8 -16 15 -30 15 -13 0 -26 7 -30 15 -3 8 -16 15 -30 15 -13 0 -26
7 -30 15 -3 8 -15 15 -26 15 -11 0 -23 7 -26 15 -4 8 -15 15 -26 15 -10 0 -31
14 -45 30 -16 19 -34 30 -51 30 -17 1 -36 12 -52 30 -13 17 -34 30 -46 30 -12
0 -27 7 -34 15 -7 8 -16 15 -21 15 -5 0 -28 14 -51 30 -22 17 -47 30 -53 30
-7 0 -15 7 -19 15 -3 8 -16 15 -30 15 -13 0 -26 7 -30 15 -3 8 -16 15 -30 15
-13 0 -26 7 -30 15 -3 8 -15 15 -26 15 -12 0 -33 13 -47 30 -15 18 -34 30 -49
30 -14 0 -32 11 -46 30 -15 20 -30 30 -49 30 -14 0 -32 7 -39 15 -7 8 -18 15
-25 15 -7 0 -15 7 -19 15 -3 8 -15 15 -26 15 -11 0 -23 7 -26 15 -4 8 -16 15
-28 15 -13 0 -36 13 -52 30 -16 16 -39 30 -50 30 -12 0 -24 7 -28 15 -3 8 -16
15 -30 15 -13 0 -26 7 -30 15 -3 8 -12 15 -19 15 -8 0 -20 7 -27 15 -7 8 -22
15 -35 15 -12 0 -35 13 -51 30 -16 16 -37 30 -47 30 -10 0 -20 7 -23 15 -4 8
-18 15 -33 15 -16 1 -35 12 -51 30 -13 17 -34 30 -45 30 -12 0 -34 14 -50 30
-16 17 -35 30 -42 30 -7 0 -22 9 -33 20 -23 23 -34 25 -46 8z m5271 -188 c18
-35 19 -69 2 -135 -12 -46 -19 -54 -80 -95 -100 -66 -148 -95 -184 -110 -18
-7 -33 -16 -33 -20 0 -4 -26 -21 -57 -39 -32 -17 -65 -35 -73 -40 -8 -5 -35
-18 -60 -30 -25 -11 -90 -50 -145 -86 -55 -35 -122 -76 -150 -91 -27 -14 -79
-43 -115 -64 -36 -22 -94 -54 -130 -71 -36 -18 -72 -38 -80 -45 -8 -7 -34 -23
-57 -36 -187 -105 -263 -149 -321 -186 -37 -24 -94 -57 -127 -73 -33 -17 -81
-42 -106 -57 -26 -15 -71 -40 -99 -55 -29 -16 -79 -46 -110 -68 -32 -21 -62
-39 -67 -39 -6 0 -22 -9 -35 -20 -31 -23 -86 -55 -193 -111 -44 -23 -107 -59
-140 -80 -90 -58 -183 -101 -230 -107 -32 -3 -53 2 -91 22 -27 14 -53 26 -58
26 -5 0 -25 12 -44 26 -19 15 -62 40 -96 56 -33 17 -68 36 -76 43 -8 7 -43 27
-77 45 -35 17 -76 42 -92 55 -15 14 -50 34 -77 45 -27 12 -51 25 -54 29 -3 4
-34 22 -70 40 -35 18 -85 47 -110 64 -25 17 -57 39 -71 48 -15 10 -38 21 -50
24 -13 4 -55 29 -94 56 -38 27 -113 70 -165 96 -107 52 -247 133 -300 173 -19
15 -60 39 -90 54 -60 29 -94 48 -155 85 -35 22 -72 43 -140 79 -11 5 -31 15
-45 21 -14 7 -48 26 -77 44 -29 18 -100 61 -159 97 -59 35 -119 75 -132 87
-14 13 -34 23 -44 23 -11 0 -32 8 -46 19 -15 10 -44 26 -64 35 -20 10 -53 32
-73 49 -31 28 -38 41 -48 100 -9 52 -8 72 1 87 7 11 12 27 12 35 0 8 2 15 4
15 16 0 98 -35 128 -55 21 -14 44 -25 51 -25 7 0 32 -14 55 -31 23 -16 61 -41
84 -53 24 -13 79 -42 123 -66 44 -23 87 -48 95 -55 8 -7 33 -21 55 -31 22 -10
51 -26 65 -37 14 -10 39 -25 55 -33 17 -7 37 -18 45 -23 34 -23 177 -107 200
-119 14 -7 41 -22 60 -33 19 -12 65 -37 103 -56 37 -18 67 -38 67 -42 0 -5 15
-14 33 -22 17 -7 50 -25 72 -40 22 -15 56 -34 75 -43 19 -9 51 -27 70 -41 59
-42 70 -48 225 -128 33 -17 68 -37 79 -46 17 -15 32 -24 151 -85 28 -14 86
-48 130 -76 44 -27 105 -61 135 -76 30 -14 69 -37 87 -50 17 -13 35 -24 39
-24 4 0 15 -6 23 -14 30 -27 196 -105 236 -111 23 -4 61 -2 85 5 59 16 169 68
203 97 16 12 34 23 41 23 7 0 21 9 31 20 10 11 23 20 30 20 7 0 40 18 74 40
34 22 68 40 75 40 7 0 30 13 51 30 20 16 46 32 58 36 12 3 28 12 36 18 7 6 42
27 76 46 75 41 243 137 265 151 8 5 36 20 63 34 26 14 47 29 47 34 0 5 21 18
48 30 26 12 74 38 107 56 33 19 65 37 70 39 6 2 17 7 25 10 20 9 46 25 100 62
25 17 74 48 110 68 36 21 85 50 110 66 25 16 101 58 170 93 129 67 188 101
325 186 101 63 155 94 225 128 30 15 60 32 65 39 8 11 95 50 117 53 4 1 14
-12 23 -29z"/>
    </g>
</svg>
